<svg t="1586569074999" class="icon" viewBox="0 0 1024 1024" version="1.1" xmlns="http://www.w3.org/2000/svg" p-id="704" width="200" height="200"><path d="M257.344 357.504c-1.216 1.024 19.072-112 132.224-132.096l14.656 21.12C365.504 256.896 335.168 267.2 321.728 306.176 326.592 305.216 331.584 304.64 336.704 304.64 380.48 304.64 416 340.224 416 384s-35.52 79.36-79.296 79.36S257.344 427.84 257.344 384C257.344 374.72 254.4 365.888 257.344 357.504zM65.344 384c0 43.84 35.584 79.36 79.36 79.36S224 427.84 224 384 188.48 304.64 144.704 304.64c-5.12 0-10.048 0.576-14.912 1.472 13.44-38.912 43.776-49.28 82.496-59.648l-14.656-21.12c-113.216 20.096-133.44 133.12-132.224 132.096C62.4 365.888 65.344 374.72 65.344 384zM766.656 304.64c0-43.84-35.584-79.36-79.36-79.36S608 260.864 608 304.64 643.52 384 687.296 384c5.12 0 10.112-0.576 14.912-1.472-13.44 38.912-43.776 49.28-82.432 59.648l14.656 21.12c113.216-20.096 133.44-133.12 132.224-132.096C769.6 322.752 766.656 313.984 766.656 304.64zM958.656 304.64c0-43.84-35.584-79.36-79.36-79.36S800 260.864 800 304.64 835.52 384 879.296 384c5.12 0 10.048-0.576 14.912-1.472-13.44 38.912-43.776 49.28-82.496 59.648l14.656 21.12c113.216-20.096 133.44-133.12 132.224-132.096C961.6 322.752 958.656 313.984 958.656 304.64zM960 736l0-128C960 590.272 945.664 576 928 576S896 590.272 896 608L896 704 128 704 128 608C128 590.272 113.664 576 96 576S64 590.272 64 608l0 128C64 753.6 78.336 768 96 768l832 0C945.664 768 960 753.6 960 736z" fill="#909399" p-id="705"></path></svg>
