<svg t="1586569112529" class="icon" viewBox="0 0 1024 1024" version="1.1" xmlns="http://www.w3.org/2000/svg" p-id="849" width="200" height="200"><path d="M853.333333 597.333333c0-64-21.333333-85.333333-85.333333-85.333333h-85.333333v-42.666667c0-42.666667 0-42.666667-85.333334-42.666666v384h170.666667c64 0 85.333333-22.613333 85.333333-85.333334v-128m-341.333333-85.333333c0-64-22.613333-85.333333-85.333333-85.333333H256c-64 0-85.333333 21.333333-85.333333 85.333333v298.666667h85.333333v-128h170.666667v128h85.333333v-298.666667m-85.333333-213.333333h170.666666V213.333333h-170.666666v85.333334m512 85.333333v469.333333c0 47.36-37.973333 85.333333-85.333334 85.333334H170.666667a85.333333 85.333333 0 0 1-85.333334-85.333334V384c0-47.36 37.973333-85.333333 85.333334-85.333333h170.666666V213.333333l85.333334-85.333333h170.666666l85.333334 85.333333v85.333334h170.666666a85.333333 85.333333 0 0 1 85.333334 85.333333m-256 341.333333h85.333333v-128h-85.333333v128M256 512h170.666667v85.333333H256v-85.333333z" fill="#909399" p-id="850"></path></svg>
