<svg t="1586577277423" class="icon" viewBox="0 0 1024 1024" version="1.1" xmlns="http://www.w3.org/2000/svg" p-id="2446" width="200" height="200"><path d="M934.940672 462.675968l-69.044224 0c-10.846208-180.87936-155.60704-325.638144-336.4864-336.4864L529.410048 57.145344c0-12.048384-9.76896-21.815296-21.817344-21.815296s-21.817344 9.76896-21.817344 21.815296l0 69.044224c-180.87936 10.846208-325.640192 155.60704-336.4864 336.4864L80.246784 462.675968c-12.048384 0-21.815296 9.76896-21.815296 21.817344s9.76896 21.817344 21.815296 21.817344l69.042176 0c10.846208 180.877312 155.60704 325.640192 336.4864 336.4864l0 69.044224c0 12.048384 9.76896 21.815296 21.817344 21.815296s21.817344-9.76896 21.817344-21.815296l0-69.044224c180.877312-10.846208 325.640192-155.60704 336.4864-336.4864l69.044224 0c12.048384 0 21.815296-9.76896 21.815296-21.817344S946.987008 462.675968 934.940672 462.675968zM820.426752 462.675968 529.410048 462.675968 529.410048 171.661312C685.215744 182.370304 809.715712 306.870272 820.426752 462.675968zM485.77536 171.661312l0 291.014656L194.760704 462.675968C205.469696 306.870272 329.969664 182.370304 485.77536 171.661312zM194.760704 506.310656l291.016704 0 0 291.016704C329.969664 786.61632 205.469696 662.116352 194.760704 506.310656zM529.410048 797.325312 529.410048 506.310656l291.016704 0C809.71776 662.116352 685.215744 786.618368 529.410048 797.325312z" fill="#909399" p-id="2447"></path></svg>
